<?xml version="1.0" encoding="iso-8859-1"?>
<!-- Generator: Adobe Illustrator 19.0.0, SVG Export Plug-In . SVG Version: 6.00 Build 0)  -->
<svg version="1.1" id="Capa_1" xmlns="http://www.w3.org/2000/svg" xmlns:xlink="http://www.w3.org/1999/xlink" x="0px" y="0px"
	 viewBox="0 0 59 59" style="enable-background:new 0 0 59 59;" xml:space="preserve">
<g>
	<g>
		<path d="M58.987,34.691c0,0,0.013-0.325,0.013-0.416c0-10.843-4.598-17.677-14.033-20.894c-0.157-0.952-0.952-1.739-2.047-1.972
			l-2.025-0.431c-7.781-1.655-16.008-1.655-23.789,0l-2.025,0.431c-1.225,0.26-2.08,1.212-2.08,2.315v0.031
			C4.378,17.088,0,23.986,0,34.275c0,0.087,0.012,0.392,0.012,0.393c0.005,0.307,0.085,0.603,0.222,0.871
			C0.097,35.941,0,36.36,0,36.8v5.903C0,44.07,0.713,45.332,1.865,46c1.141,0.661,2.865,1.659,5.086,2.425
			c1.631,0.563,3.333,0.839,5.04,0.839c3.352,0,6.719-1.064,9.585-3.113c1.17-0.836,2.337-1.806,3.48-2.876h8.887
			c1.143,1.07,2.31,2.04,3.48,2.876c2.866,2.049,6.233,3.113,9.585,3.113c1.706,0,3.41-0.276,5.04-0.839
			c2.221-0.766,3.945-1.765,5.09-2.428C58.287,45.332,59,44.07,59,42.704V36.8c0-0.44-0.096-0.859-0.234-1.26
			C58.903,35.275,58.983,34.985,58.987,34.691z M45,15.506c7.821,2.912,11.752,8.777,11.988,17.883
			c-0.174-0.115-0.363-0.212-0.542-0.322c-0.265-0.163-0.529-0.326-0.803-0.477c-0.249-0.137-0.507-0.26-0.763-0.387
			c-0.286-0.141-0.571-0.284-0.865-0.412c-0.073-0.032-0.141-0.071-0.214-0.102c-0.049-1.073-0.107-1.769-0.176-2.071l-0.055-0.17
			c-0.739-3.779-2.425-6.632-5.152-8.722c-0.962-0.737-2.15-1.208-3.418-1.362C45,19.364,45,15.506,45,15.506z M15,13.724
			c0-0.106,0.173-0.291,0.496-0.359l2.025-0.431c7.509-1.598,15.448-1.598,22.957,0l2.025,0.431C42.827,13.434,43,13.618,43,13.724
			v6.436l-0.004,0.075c-0.094,0.034-0.341,0.078-0.788-0.017l-1.234-0.26c-1.924-2.249-6.352-3.683-11.474-3.683
			c-4.971,0-9.352,1.378-11.339,3.539l-0.096,0.017c-0.26,0.046-0.52,0.092-0.777,0.146l-1.131,0.241
			c-0.567,0.121-1.003,0.026-1.157-0.054C15,20.164,15,13.724,15,13.724z M13,15.903v3.787c-0.901,0.155-1.735,0.506-2.414,1.025
			c-2.727,2.084-4.412,4.94-5.144,8.697c-0.029,0.124-0.11,0.473-0.179,2.251c-0.08,0.034-0.154,0.076-0.234,0.111
			c-0.311,0.135-0.612,0.283-0.913,0.431c-0.251,0.124-0.502,0.245-0.746,0.378c-0.281,0.154-0.551,0.321-0.823,0.487
			c-0.177,0.108-0.364,0.204-0.536,0.318C2.247,24.788,5.939,18.914,13,15.903z M7.604,46.534c-2.038-0.703-3.598-1.606-4.74-2.268
			C2.331,43.958,2,43.359,2,42.704V36.8c0-0.284,0.068-0.559,0.185-0.807l0.061-0.109c0.068-0.122,0.143-0.23,0.226-0.325
			c0.084-0.094,0.175-0.182,0.277-0.253c0.39-0.272,0.798-0.523,1.213-0.763c0.106-0.061,0.213-0.122,0.32-0.181
			c0.405-0.223,0.817-0.436,1.243-0.629c0.032-0.015,0.065-0.029,0.097-0.044c0.987-0.441,2.028-0.804,3.119-1.082H8.739
			c2.948-0.751,5.984-0.608,8.784,0.369c-0.519-0.051-1.047-0.085-1.592-0.085c-5.646,0-10.068,2.845-10.068,6.478
			s4.423,6.478,10.068,6.478c0.934,0,1.83-0.085,2.683-0.231C15.154,47.435,11.242,47.79,7.604,46.534z M15.932,43.847
			c-4.373,0-8.068-2.051-8.068-4.478s3.695-4.478,8.068-4.478S24,36.942,24,39.369S20.305,43.847,15.932,43.847z M33,41.275h-7v-3h7
			V41.275z M33.477,36.275h-7.954c-0.574-0.876-1.856-2.397-4.481-3.893c-3.888-2.216-8.436-2.823-12.795-1.713H8.246
			c-0.323,0.082-0.632,0.189-0.947,0.285c0.046-0.839,0.088-1.071,0.099-1.123c0.642-3.291,2.082-5.752,4.403-7.526
			c0.495-0.379,1.142-0.606,1.838-0.674c0.021,0.019,0.037,0.042,0.06,0.06c0.788,0.639,2.003,0.669,2.875,0.484l1.131-0.241
			c0.234-0.05,0.471-0.091,0.707-0.133l0.83-0.153l0.231-0.292c1.436-1.814,5.56-3.081,10.027-3.081
			c5.368,0,9.005,1.65,10.112,3.184l0.228,0.316l1.952,0.4c0.314,0.067,0.616,0.1,0.9,0.1c0.643,0,1.196-0.169,1.604-0.5
			c0.149-0.121,0.267-0.266,0.37-0.421c0.948,0.1,1.834,0.423,2.534,0.96c2.323,1.781,3.765,4.24,4.407,7.523
			c0.019,0.092,0.043,0.182,0.073,0.27c0.014,0.093,0.043,0.337,0.078,0.865c-0.334-0.102-0.662-0.215-1.005-0.302h-0.001
			c-4.363-1.109-8.906-0.502-12.795,1.713C35.332,33.878,34.051,35.399,33.477,36.275z M35,39.369c0-2.427,3.695-4.478,8.068-4.478
			s8.068,2.05,8.068,4.478s-3.695,4.478-8.068,4.478S35,41.796,35,39.369z M57,42.704c0,0.655-0.331,1.254-0.867,1.565
			c-1.139,0.659-2.698,1.562-4.736,2.265c-3.638,1.255-7.55,0.9-11.011-0.919c0.853,0.146,1.749,0.231,2.683,0.231
			c5.646,0,10.068-2.846,10.068-6.478s-4.423-6.478-10.068-6.478c-0.545,0-1.073,0.034-1.592,0.085
			c2.8-0.977,5.837-1.12,8.784-0.369c0.88,0.224,1.718,0.517,2.53,0.847c0.449,0.183,0.888,0.382,1.317,0.597
			c0.168,0.084,0.338,0.165,0.503,0.255c0.566,0.307,1.117,0.634,1.637,0.996c0.002,0.001,0.003,0.002,0.005,0.003
			c0.103,0.071,0.193,0.159,0.277,0.253c0.082,0.095,0.158,0.203,0.226,0.325l0.061,0.109C56.932,36.241,57,36.517,57,36.8V42.704z"
			/>
	</g>
</g>
<g>
</g>
<g>
</g>
<g>
</g>
<g>
</g>
<g>
</g>
<g>
</g>
<g>
</g>
<g>
</g>
<g>
</g>
<g>
</g>
<g>
</g>
<g>
</g>
<g>
</g>
<g>
</g>
<g>
</g>
</svg>
